<?xml version="1.0" standalone="no"?>

<svg version="1.0" xmlns="http://www.w3.org/2000/svg"
  viewBox="0 0 62 30" 
 preserveAspectRatio="xMidYMid meet">

<g transform="translate(0.000000,30.000000) scale(0.100000,-0.100000)"
fill="#880000" stroke="none">
<path d="M265 231 c-2 -5 -27 -11 -53 -13 -53 -5 -120 -34 -165 -70 l-28 -23
64 0 c50 0 70 -4 86 -19 21 -19 21 -19 21 2 0 30 42 30 62 0 l15 -22 12 22 c7
14 21 22 36 22 22 0 25 -4 25 -41 0 -39 0 -40 22 -25 12 9 37 16 56 16 18 0
31 4 27 10 -6 9 35 22 107 34 32 6 58 28 58 50 0 3 -39 17 -87 32 -87 27 -247
42 -258 25z m52 -33 c6 -5 9 -16 6 -24 -5 -13 -8 -12 -24 2 -37 33 -21 52 18
22z m-27 -33 l25 -30 -27 24 c-16 14 -28 29 -28 34 0 6 1 8 3 6 1 -2 13 -17
27 -34z m185 25 c18 -8 17 -9 -7 -9 -15 -1 -30 4 -33 9 -7 12 12 12 40 0z"/>
<path d="M240 43 c0 -29 3 -33 25 -33 20 0 25 5 25 26 0 22 -3 24 -14 15 -11
-10 -17 -8 -25 6 -9 15 -10 13 -11 -14z"/>
</g>
</svg>
