<?xml version="1.0" encoding="utf-8"?><svg version="1.1" id="Layer_1" xmlns="http://www.w3.org/2000/svg" xmlns:xlink="http://www.w3.org/1999/xlink" x="0px" y="0px" viewBox="0 0 70.29 122.88" style="enable-background:new 0 0 70.29 122.88" xml:space="preserve"><style type="text/css">.st0{fill-rule:evenodd;clip-rule:evenodd;} .st1{fill-rule:evenodd;clip-rule:evenodd;fill:#00D8FF;}</style><g><path class="st0" d="M13.26,0h43.76C60.67,0,64,1.49,66.4,3.88c2.4,2.4,3.89,5.73,3.89,9.38v96.36c0,3.65-1.49,6.98-3.89,9.38 c-2.39,2.39-5.73,3.88-9.38,3.88H13.26c-3.65,0-6.98-1.49-9.38-3.88C1.49,116.6,0,113.27,0,109.62V13.26 c0-3.65,1.49-6.98,3.89-9.38C6.28,1.49,9.61,0,13.26,0L13.26,0L13.26,0L13.26,0z M67.09,104.67V13.69H3.18v90.96 C25.41,104.66,44.87,104.67,67.09,104.67L67.09,104.67L67.09,104.67z"/><path class="st1" d="M59.78,59.19c0-3.26-4.09-6.36-10.36-8.28c1.45-6.39,0.8-11.47-2.03-13.1c-0.65-0.38-1.42-0.56-2.25-0.56v2.24 c0.46,0,0.83,0.09,1.15,0.26c1.37,0.78,1.96,3.77,1.5,7.61c-0.11,0.94-0.29,1.94-0.51,2.95c-1.97-0.48-4.12-0.85-6.38-1.1 c-1.36-1.86-2.76-3.55-4.18-5.02c3.27-3.05,6.35-4.71,8.44-4.71v-2.24l0,0c-2.76,0-6.38,1.97-10.04,5.39 c-3.66-3.4-7.27-5.35-10.04-5.35v2.24c2.08,0,5.16,1.66,8.44,4.68c-1.41,1.48-2.81,3.15-4.15,5.01c-2.27,0.24-4.42,0.61-6.39,1.1 c-0.23-1-0.4-1.98-0.52-2.91c-0.47-3.84,0.11-6.82,1.47-7.62c0.3-0.18,0.69-0.26,1.16-0.26l0-2.24l0,0c-0.84,0-1.61,0.18-2.27,0.56 c-2.82,1.63-3.46,6.7-2,13.07c-6.26,1.93-10.33,5.01-10.33,8.27c0,3.27,4.09,6.36,10.36,8.28c-1.45,6.39-0.8,11.47,2.03,13.1 c0.65,0.38,1.42,0.56,2.26,0.56c2.76,0,6.38-1.97,10.04-5.39c3.66,3.4,7.27,5.35,10.04,5.35c0.84,0,1.61-0.18,2.27-0.56 c2.82-1.63,3.46-6.7,2-13.07C55.71,65.54,59.78,62.44,59.78,59.19L59.78,59.19L59.78,59.19z M39.72,59.19 c0-2.54-2.05-4.59-4.59-4.59c-2.54,0-4.59,2.05-4.59,4.59c0,2.54,2.05,4.59,4.59,4.59C37.66,63.78,39.72,61.72,39.72,59.19 L39.72,59.19L39.72,59.19z M25.07,37.28L25.07,37.28L25.07,37.28L25.07,37.28L25.07,37.28z M46.7,52.49 c-0.37,1.3-0.83,2.63-1.36,3.97c-0.41-0.8-0.84-1.61-1.32-2.41c-0.46-0.8-0.95-1.59-1.45-2.35C44.01,51.9,45.39,52.17,46.7,52.49 L46.7,52.49L46.7,52.49z M42.1,63.19c-0.78,1.36-1.59,2.64-2.42,3.84c-1.5,0.13-3.01,0.2-4.54,0.2c-1.52,0-3.03-0.07-4.52-0.19 c-0.83-1.2-1.65-2.47-2.43-3.82c-0.76-1.32-1.46-2.65-2.09-4c0.62-1.35,1.33-2.69,2.08-4.01c0.78-1.36,1.59-2.64,2.42-3.84 c1.5-0.13,3.01-0.2,4.54-0.2c1.52,0,3.03,0.07,4.52,0.19c0.83,1.2,1.65,2.47,2.43,3.82c0.76,1.32,1.46,2.65,2.09,4 C43.54,60.52,42.85,61.87,42.1,63.19L42.1,63.19L42.1,63.19z M45.35,61.88c0.54,1.35,1,2.69,1.39,4c-1.32,0.32-2.7,0.59-4.14,0.8 c0.49-0.77,0.98-1.57,1.45-2.38C44.5,63.5,44.93,62.68,45.35,61.88L45.35,61.88L45.35,61.88z M35.16,72.6 c-0.93-0.96-1.87-2.04-2.79-3.21c0.9,0.04,1.83,0.07,2.76,0.07c0.94,0,1.88-0.02,2.79-0.07C37.01,70.56,36.08,71.64,35.16,72.6 L35.16,72.6L35.16,72.6z M27.68,66.68c-1.43-0.21-2.8-0.47-4.12-0.79c0.37-1.3,0.83-2.63,1.36-3.97c0.41,0.8,0.84,1.61,1.32,2.41 C26.71,65.14,27.19,65.92,27.68,66.68L27.68,66.68L27.68,66.68z M35.1,45.78c0.93,0.96,1.87,2.04,2.79,3.21 c-0.9-0.04-1.83-0.07-2.76-0.07c-0.94,0-1.88,0.02-2.79,0.07C33.25,47.81,34.18,46.74,35.1,45.78L35.1,45.78L35.1,45.78z M27.67,51.69c-0.49,0.77-0.98,1.57-1.45,2.38c-0.46,0.8-0.89,1.61-1.31,2.41c-0.54-1.35-1-2.69-1.39-4 C24.85,52.17,26.24,51.9,27.67,51.69L27.67,51.69L27.67,51.69z M18.58,64.27c-3.56-1.52-5.86-3.51-5.86-5.08 c0-1.58,2.3-3.58,5.86-5.08c0.86-0.37,1.81-0.7,2.78-1.01c0.57,1.97,1.33,4.02,2.26,6.12c-0.92,2.09-1.67,4.13-2.23,6.09 C20.4,64.99,19.45,64.64,18.58,64.27L18.58,64.27L18.58,64.27z M23.99,78.63c-1.37-0.78-1.96-3.77-1.5-7.61 c0.11-0.94,0.29-1.94,0.51-2.95c1.97,0.48,4.12,0.85,6.38,1.1c1.36,1.86,2.76,3.55,4.18,5.02c-3.28,3.04-6.35,4.71-8.44,4.71 C24.67,78.89,24.29,78.8,23.99,78.63L23.99,78.63L23.99,78.63z M47.82,70.97c0.47,3.84-0.11,6.82-1.47,7.62 c-0.3,0.18-0.69,0.26-1.16,0.26c-2.08,0-5.16-1.66-8.44-4.68c1.41-1.48,2.81-3.15,4.15-5.01c2.27-0.24,4.42-0.61,6.39-1.11 C47.52,69.06,47.7,70.04,47.82,70.97L47.82,70.97L47.82,70.97z M51.68,64.27c-0.86,0.37-1.81,0.7-2.78,1.02 c-0.57-1.97-1.33-4.02-2.26-6.12c0.92-2.09,1.67-4.13,2.23-6.09c0.99,0.31,1.94,0.65,2.82,1.02c3.56,1.52,5.86,3.51,5.86,5.08 C57.54,60.77,55.24,62.76,51.68,64.27L51.68,64.27L51.68,64.27z"/></g></svg>